<svg width="11" height="12" viewBox="0 0 11 12" fill="none" xmlns="http://www.w3.org/2000/svg">
<path fill-rule="evenodd" clip-rule="evenodd" d="M4.65568 10.8746C4.58822 10.8073 4.53471 10.7273 4.4982 10.6393C4.46169 10.5513 4.4429 10.4569 4.4429 10.3616C4.4429 10.2664 4.46169 10.172 4.4982 10.084C4.53471 9.99595 4.58822 9.91599 4.65568 9.84867L8.48929 6.01506L4.65568 2.18144C4.58573 2.11466 4.52985 2.03457 4.4913 1.94588C4.45275 1.85719 4.43232 1.76169 4.4312 1.665C4.43008 1.5683 4.44831 1.47235 4.4848 1.3828C4.52129 1.29324 4.57531 1.21189 4.64369 1.14351C4.71207 1.07512 4.79343 1.0211 4.88298 0.984612C4.97254 0.948121 5.06848 0.929899 5.16518 0.931016C5.26188 0.932133 5.35738 0.952565 5.44606 0.991115C5.53475 1.02966 5.61484 1.08555 5.68162 1.15549L10.0282 5.50208C10.163 5.63785 10.2387 5.82143 10.2387 6.01277C10.2387 6.20412 10.163 6.3877 10.0282 6.52347L5.68162 10.8746C5.61431 10.9421 5.53435 10.9956 5.44633 11.0321C5.3583 11.0686 5.26394 11.0874 5.16865 11.0874C5.07335 11.0874 4.979 11.0686 4.89097 11.0321C4.80295 10.9956 4.72299 10.9421 4.65568 10.8746Z" fill="white"/>
<path fill-rule="evenodd" clip-rule="evenodd" d="M0.097168 6.01501C0.097168 5.8228 0.173524 5.63846 0.309438 5.50254C0.445353 5.36663 0.629692 5.29027 0.821904 5.29027H8.06653C8.25874 5.29027 8.44308 5.36663 8.57899 5.50254C8.71491 5.63846 8.79126 5.8228 8.79126 6.01501C8.79126 6.20722 8.71491 6.39156 8.57899 6.52748C8.44308 6.66339 8.25874 6.73975 8.06653 6.73975L0.821904 6.73975C0.629692 6.73975 0.445353 6.66339 0.309438 6.52748C0.173524 6.39156 0.097168 6.20722 0.097168 6.01501H0.097168Z" fill="white"/>
</svg>
