<svg width="91" height="114" viewBox="0 0 91 114" fill="none" xmlns="http://www.w3.org/2000/svg">
<g filter="url(#filter0_d_206_231)">
<path d="M71 37.5C71 23.4167 59.5833 12 45.5 12C31.4167 12 20 23.4167 20 37.5V59.8483C20 73.9316 31.4167 85.3483 45.5 85.3483C59.5833 85.3483 71 73.9316 71 59.8483V37.5Z" fill="white"/>
</g>
<path fill-rule="evenodd" clip-rule="evenodd" d="M38.65 47.8559C38.7478 47.758 38.8639 47.6804 38.9917 47.6274C39.1195 47.5744 39.2566 47.5472 39.3949 47.5472C39.5333 47.5472 39.6703 47.5744 39.7981 47.6274C39.9259 47.6804 40.042 47.758 40.1399 47.8559L45.7143 53.4326L51.2894 47.8559C51.3852 47.7494 51.5017 47.6637 51.6317 47.6037C51.7617 47.5438 51.9026 47.5109 52.0457 47.5072C52.1889 47.5034 52.3313 47.5288 52.4643 47.5819C52.5973 47.635 52.7181 47.7145 52.8193 47.8158C52.9206 47.917 53.0001 48.0378 53.0532 48.1708C53.1063 48.3038 53.1317 48.4462 53.1279 48.5894C53.1242 48.7325 53.0913 48.8734 53.0314 49.0034C52.9715 49.1335 52.8857 49.2499 52.7793 49.3457L46.4639 55.6674C46.366 55.7653 46.2499 55.8429 46.1221 55.8959C45.9943 55.9489 45.8573 55.9761 45.7189 55.9761C45.5806 55.9761 45.4435 55.9489 45.3157 55.8959C45.1879 55.8429 45.0718 55.7653 44.974 55.6674L38.6534 49.3469C38.5555 49.2491 38.4779 49.1329 38.425 49.0051C38.372 48.8773 38.3447 48.7403 38.3447 48.6019C38.3447 48.4636 38.372 48.3266 38.425 48.1988C38.4779 48.0709 38.5555 47.9548 38.6534 47.857L38.65 47.8559Z" fill="black"/>
<path fill-rule="evenodd" clip-rule="evenodd" d="M45.7154 41.2281C45.8537 41.2281 45.9907 41.2554 46.1185 41.3083C46.2463 41.3612 46.3624 41.4388 46.4602 41.5366C46.558 41.6344 46.6356 41.7505 46.6885 41.8783C46.7414 42.0061 46.7687 42.143 46.7687 42.2814V52.8154C46.7687 53.0948 46.6577 53.3628 46.4601 53.5604C46.2625 53.758 45.9946 53.869 45.7151 53.869C45.4357 53.869 45.1678 53.758 44.9702 53.5604C44.7726 53.3628 44.6616 53.0948 44.6616 52.8154V42.2814C44.6616 42.143 44.6889 42.006 44.7418 41.8782C44.7948 41.7503 44.8724 41.6342 44.9703 41.5364C45.0682 41.4386 45.1843 41.361 45.3122 41.3081C45.44 41.2552 45.5771 41.228 45.7154 41.2281Z" fill="black"/>
<defs>
<filter id="filter0_d_206_231" x="0" y="0" width="91" height="113.348" filterUnits="userSpaceOnUse" color-interpolation-filters="sRGB">
<feFlood flood-opacity="0" result="BackgroundImageFix"/>
<feColorMatrix in="SourceAlpha" type="matrix" values="0 0 0 0 0 0 0 0 0 0 0 0 0 0 0 0 0 0 127 0" result="hardAlpha"/>
<feOffset dy="8"/>
<feGaussianBlur stdDeviation="10"/>
<feColorMatrix type="matrix" values="0 0 0 0 0 0 0 0 0 0 0 0 0 0 0 0 0 0 0.078 0"/>
<feBlend mode="normal" in2="BackgroundImageFix" result="effect1_dropShadow_206_231"/>
<feBlend mode="normal" in="SourceGraphic" in2="effect1_dropShadow_206_231" result="shape"/>
</filter>
</defs>
</svg>
